# AST/ASF file generated using VICON BodyLanguage
# -----------------------------------------------
:version 1.10
:name VICON
:units
  mass 1.0
  length 0.45
  angle deg
:documentation
   .ast/.asf automatically generated from VICON data using
   VICON BodyBuilder and BodyLanguage model FoxedUp or BRILLIANT.MOD
:root
   order TX TY TZ RX RY RZ
   axis XYZ
   position 0 0 0  
   orientation 0 0 0 
:bonedata
  begin
     id 1 
     name lhipjoint
     direction 0.627457 -0.725269 0.283342 
     length 2.53237 
     axis 0 0 0  XYZ
  end
  begin
     id 2 
     name lfemur
     direction 0.34202 -0.939693 0  
     length 7.32496  
     axis 0 0 20  XYZ
    dof rx ry rz
    limits (-160.0 20.0)
           (-70.0 70.0)
           (-60.0 70.0)
  end
  begin
     id 3 
     name ltibia
     direction 0.34202 -0.939693 0   
     length 7.69674   
     axis 0 0 20   XYZ
    dof rx
    limits (-10.0 170.0)
  end
  begin
     id 4 
     name lfoot
     direction 0.127289 -0.349722 0.928166   
     length 1.8612   
     axis -90 7.62852e-016 20   XYZ
    dof rx rz
    limits (-45.0 90.0)
           (-70.0 20.0)
  end
  begin
     id 5 
     name ltoes
     direction 1.53561e-011 -4.21864e-011 1   
     length 0.925608   
     axis -90 7.62852e-016 20   XYZ
    dof rx
    limits (-90.0 20.0)
  end
  begin
     id 6 
     name rhipjoint
     direction -0.609094 -0.738725 0.288599   
     length 2.48624  
     axis 0 0 0  XYZ 
  end
  begin
     id 7 
     name rfemur
     direction -0.34202 -0.939693 0   
     length 7.44259   
     axis 0 0 -20   XYZ
    dof rx ry rz
    limits (-160.0 20.0)
           (-70.0 70.0)
           (-70.0 60.0)
  end
  begin
     id 8 
     name rtibia
     direction -0.34202 -0.939693 0   
     length 7.7781   
     axis 0 0 -20   XYZ
    dof rx
    limits (-10.0 170.0)
 end
 begin
     id 9 
     name rfoot
     direction -0.107015 -0.294021 0.949789   
     length 2.14741  
     axis -90 -7.62852e-016 -20   XYZ
    dof rx rz
    limits (-45.0 90.0)
           (-20.0 70.0)
  end
  begin
     id 10 
     name rtoes
     direction -1.53497e-011 -4.21924e-011 1   
     length 1.0706   
     axis -90 -7.62852e-016 -20   XYZ
    dof rx
    limits (-90.0 20.0)
  end
  begin
     id 11 
     name lowerback
     direction -0.0142066 0.998112 -0.0597545   
     length 1.86627   
     axis 0 0 0   XYZ
    dof rx ry rz
    limits (-20.0 45.0)
           (-30.0 30.0)
           (-30.0 30.0)
  end
  begin
     id 12 
     name upperback
     direction 0.00547294 0.999744 0.0219437   
     length 1.86272   
     axis 0 0 0   XYZ
    dof rx ry rz
    limits (-20.0 45.0)
           (-30.0 30.0)
           (-30.0 30.0)
  end
  begin
     id 13 
     name thorax
     direction 0.0116162 0.998704 0.0495538   
     length 1.8703   
     axis 0 0 0   XYZ
    dof rx ry rz
    limits (-20.0 45.0)
           (-30.0 30.0)
           (-30.0 30.0)
  end
  begin
     id 14 
     name lowerneck
     direction -0.0106574 0.998739 0.0490586   
     length 1.8074   
     axis 0 0 0   XYZ
    dof rx ry rz
    limits (-20.0 45.0)
           (-30.0 30.0)
           (-30.0 30.0)
  end
  begin
     id 15 
     name upperneck
     direction 0.030527 0.976587 -0.212944   
     length 1.80681   
     axis 0 0 0   XYZ
    dof rx ry rz
    limits (-20.0 45.0)
           (-30.0 30.0)
           (-30.0 30.0)
  end
  begin
     id 16
     name head
     direction 0.00869225 0.997035 -0.0764531  
     length 1.8313  
     axis 0 0 0   XYZ
    dof rx ry rz
    limits (-20.0 45.0)
           (-30.0 30.0)
           (-30.0 30.0)
  end
  begin
     id 17 
     name lclavicle
     direction 0.915958 0.399447 0.0382386  
     length 3.78965  
     axis 0 0 0   XYZ
    dof ry rz
    limits (-20.0 10.0)
           (0.0 20.0)
  end
  begin
     id 18 
     name lhumerus
     direction 1 -4.48967e-011 3.19303e-027   
     length 4.78095   
     axis -180 -30 -90   XYZ
    dof rx ry rz
    limits (-60.0 90.0)
           (-90.0 90.0)
           (-90.0 90.0)
  end
  begin
     id 19
     name lradius
     direction 1 -4.48967e-011 -3.77974e-027   
     length 3.58615   
     axis -180 -30 -90   XYZ
    dof rx
    limits (-10.0 170.0)
  end
  begin
     id 20
     name lwrist
     direction 1 -4.48927e-011 1.2807e-027   
     length 1.79307   
     axis 1.91374e-015 90 90   XYZ
    dof ry
    limits (-180.0 0.0)
 end
  begin
     id 21 
     name lhand
     direction 1 -4.49036e-011 2.5614e-027   
     length 0.659812   
     axis -1.63439e-015 90 90   XYZ
    dof rx rz
    limits (-90.0 90.0)
           (-45.0 45.0)
  end
  begin
     id 22 
     name lfingers
     direction 1 -4.49052e-011 5.1228e-027   
     length 0.531957   
     axis -3.26879e-015 90 90   XYZ
    dof rx
    limits (0.0 90.0)
  end
  begin
     id 23
     name lthumb
     direction 0.707107 -6.35012e-011 0.707107   
     length 0.763787   
     axis -90 45 2.85299e-015   XYZ
    dof rx rz
    limits (-45.0 45.0)
           (-45.0 45.0)
  end
  begin
     id 24 
     name rclavicle
     direction -0.895351 0.435135 0.0948887   
     length 3.70497  
     axis 0 0 0   XYZ 
    dof ry rz
    limits (-10.0 20.0)
           (-20.0 0.0)
  end
  begin
     id 25 
     name rhumerus
     direction -1 -4.48971e-011 2.38946e-027  
     length 4.48913   
     axis -180 30 90   XYZ
    dof rx ry rz
    limits (-90.0 60.0)
           (-90.0 90.0)
           (-90.0 90.0)
  end
  begin
     id 26 
     name rradius
     direction -1 -4.4895e-011 4.38668e-027   
     length 3.7051   
     axis -180 30 90   XYZ
    dof rx
    limits (-10.0 170.0)
  end
  begin
     id 27 
     name rwrist
     direction -1 -4.49007e-011 1.2807e-027   
     length 1.85255   
     axis 1.91374e-015 -90 -90   XYZ
    dof ry
    limits (-180.0 0.0)
  end
  begin
     id 28
     name rhand
     direction -1 -4.48851e-011 2.5614e-027   
     length 0.449136   
     axis -1.63439e-015 -90 -90   XYZ
    dof rx rz
    limits (-90.0 90.0)
           (-45.0 45.0)
  end
  begin
     id 29
     name rfingers
     direction -1 -4.49128e-011 5.1228e-027   
     length 0.362105   
     axis -3.26879e-015 -90 -90   XYZ
    dof rx
    limits (0.0 90.0)
  end
  begin
     id 30
     name rthumb
     direction -0.707107 -6.34851e-011 0.707107   
     length 0.519912   
     axis -90 -45 -2.85299e-015   XYZ
    dof rx rz
    limits (-45.0 45.0)
           (-45.0 45.0)
  end
:hierarchy
  begin
    root lhipjoint rhipjoint lowerback
    lhipjoint lfemur
    lfemur ltibia
    ltibia lfoot
    lfoot ltoes
    rhipjoint rfemur
    rfemur rtibia
    rtibia rfoot
    rfoot rtoes
    lowerback upperback
    upperback thorax
    thorax lowerneck lclavicle rclavicle
    lowerneck upperneck
    upperneck head
    lclavicle lhumerus
    lhumerus lradius
    lradius lwrist
    lwrist lhand lthumb
    lhand lfingers
    rclavicle rhumerus
    rhumerus rradius
    rradius rwrist
    rwrist rhand rthumb
    rhand rfingers
  end

#!OML:ASF I:\Actors\actors\Patient Classification 2\Patient 1\Session 1\actor1.ASF
:FULLY-SPECIFIED
:DEGREES
1
root -0.749782 18.6674 5.90967 0.946102 -5.48576 -5.45751
lowerback 1.1456 0.932721 3.04978
upperback -1.47085 1.33193 1.14321
thorax -2.10981 0.626084 -0.574268
lowerneck -11.5506 0.512108 0.665194
upperneck 22.2575 0.0143131 2.35242
head 8.86092 0.305883 0.686574
rclavicle -7.35503e-015 -2.18663e-015
rhumerus -47.2947 -4.32606 -86.4229
rradius 39.2957
rwrist 21.1212
rhand -6.02961 -26.5058
rfingers 7.12502
rthumb 19.8039 -55.5169
lclavicle -7.35503e-015 -2.18663e-015
lhumerus -41.7722 5.89201 88.3873
lradius 36.7953
lwrist -14.0489
lhand -2.95039 -25.1961
lfingers 7.12502
lthumb 22.7616 3.4812
rfemur 7.31904 -0.780415 19.0481
rtibia 1.59028e-015
rfoot -12.7017 -5.06398
rtoes -8.35684
lfemur -4.77741 -6.66432 -9.37968
ltibia 24.5404
lfoot -24.943 13.4893
ltoes -54.7743
2
root -0.750508 18.6667 5.9089 0.946497 -5.48226 -5.45826
lowerback 1.15975 0.926746 3.03048
upperback -1.47494 1.3244 1.1511
thorax -2.1228 0.6225 -0.555491
lowerneck -11.6133 0.509795 0.572259
upperneck 22.3274 0.00926552 2.43392
head 8.89642 0.305284 0.730174
rclavicle -2.11209e-015 2.78299e-015
rhumerus -47.2808 -4.28111 -86.4337
rradius 39.2826
rwrist 21.1008
rhand -6.05233 -26.504
rfingers 7.12502
rthumb 19.7821 -55.5173
lclavicle -2.11209e-015 2.78299e-015
lhumerus -41.7806 5.92834 88.3756
lradius 36.7807
lwrist -14.0785
lhand -2.99572 -25.2849
lfingers 7.12502
lthumb 22.7181 3.39767
rfemur 7.32014 -0.783973 19.0506
rtibia -1.11319e-014
rfoot -12.716 -5.05072
rtoes -8.4469
lfemur -4.78471 -6.67699 -9.37582
ltibia 24.5491
lfoot -24.9647 13.4937
ltoes -54.7599
3
root -0.750302 18.6671 5.90844 0.954547 -5.47641 -5.44412
lowerback 1.16082 0.932195 3.01443
upperback -1.49708 1.33185 1.14381
thorax -2.1461 0.625927 -0.554445
lowerneck -11.5864 0.490496 0.520398
upperneck 22.3565 -0.0167956 2.47603
head 8.90156 0.293221 0.750462
rclavicle 6.68413e-015 2.78299e-015
rhumerus -47.3268 -4.29893 -86.4233
rradius 39.2794
rwrist 21.1533
rhand -6.12619 -26.4491
rfingers 7.12502
rthumb 19.711 -55.4697
lclavicle 6.68413e-015 2.78299e-015
lhumerus -41.8229 5.89331 88.3779
lradius 36.7851
lwrist -14.0652
lhand -3.06621 -25.3596
lfingers 7.12502
lthumb 22.6504 3.33126
rfemur 7.31235 -0.790103 19.0355
rtibia 9.54166e-015
rfoot -12.7347 -5.06141
rtoes -8.68002
lfemur -4.80105 -6.67895 -9.39288
ltibia 24.5481
lfoot -24.9332 13.5151
ltoes -54.7837
4
root -0.749094 18.6677 5.90797 0.955006 -5.47358 -5.43612
lowerback 1.15817 0.936618 3.01665
upperback -1.50379 1.33768 1.1338
thorax -2.15105 0.628597 -0.566125
lowerneck -11.5518 0.479412 0.524382
upperneck 22.3541 -0.0311466 2.46985
head 8.89447 0.285927 0.745936
rclavicle 7.24322e-015 9.74045e-015
rhumerus -47.3486 -4.30704 -86.4286
rradius 39.2883
rwrist 21.155
rhand -6.14868 -26.4374
rfingers 7.12502
rthumb 19.6894 -55.4603
lclavicle 7.24322e-015 9.74045e-015
lhumerus -41.8389 5.89065 88.3636
lradius 36.7947
lwrist -14.0975
lhand -3.09231 -25.3543
lfingers 7.12502
lthumb 22.6254 3.33958
rfemur 7.30575 -0.792846 19.0213
rtibia 9.54166e-015
rfoot -12.7366 -5.06631
rtoes -8.54799
lfemur -4.81556 -6.67862 -9.40821
ltibia 24.5537
lfoot -24.8906 13.5501
ltoes -54.8551
5
root -0.748983 18.6681 5.90695 0.954375 -5.47133 -5.46162
lowerback 1.15849 0.933585 3.02908
upperback -1.49075 1.33376 1.14436
thorax -2.13793 0.626807 -0.562018
lowerneck -11.5784 0.48251 0.521166
upperneck 22.3587 -0.0267084 2.47026
head 8.90094 0.287984 0.747259
rclavicle 2.07481e-015 4.57205e-015
rhumerus -47.3197 -4.2818 -86.4433
rradius 39.2913
rwrist 21.1057
rhand -6.11606 -26.4382
rfingers 7.12502
rthumb 19.7208 -55.4578
lclavicle 2.07481e-015 4.57205e-015
lhumerus -41.8205 5.92695 88.3505
lradius 36.7999
lwrist -14.1411
lhand -3.1177 -25.3262
lfingers 7.12502
lthumb 22.601 3.37065
rfemur 7.30048 -0.794839 19.0473
rtibia 1.43125e-014
rfoot -12.7164 -5.06467
rtoes -8.51126
lfemur -4.82441 -6.67148 -9.37821
ltibia 24.5597
lfoot -24.8801 13.5634
ltoes -54.8946
6
root -0.749504 18.668 5.90613 0.959989 -5.46161 -5.49208
lowerback 1.14547 0.931336 3.04045
upperback -1.48091 1.33048 1.16029
thorax -2.12074 0.625431 -0.551603
lowerneck -11.5952 0.481867 0.532075
upperneck 22.3556 -0.0246029 2.4469
head 8.90301 0.287508 0.737767
rclavicle 3.17186e-014 1.66979e-014
rhumerus -47.2862 -4.25214 -86.4441
rradius 39.2649
rwrist 21.0621
rhand -6.15897 -26.3906
rfingers 7.12502
rthumb 19.6795 -55.4145
lclavicle 3.17186e-014 1.66979e-014
lhumerus -41.7932 5.9454 88.3565
lradius 36.7841
lwrist -14.1506
lhand -3.15015 -25.3403
lfingers 7.12502
lthumb 22.5699 3.36034
rfemur 7.2943 -0.804596 19.0851
rtibia -1.11319e-014
rfoot -12.7106 -5.06573
rtoes -8.69224
lfemur -4.83822 -6.65359 -9.3351
ltibia 24.5685
lfoot -24.8892 13.5174
ltoes -54.8467
7
root -0.749495 18.6675 5.90626 0.960412 -5.45054 -5.50574
lowerback 1.13143 0.927639 3.057
upperback -1.47795 1.32518 1.15789
thorax -2.10956 0.622671 -0.562867
lowerneck -11.572 0.485687 0.581431
upperneck 22.3291 -0.0175497 2.39873
head 8.88961 0.289512 0.713552
rclavicle 1.32192e-014 -8.34896e-015
rhumerus -47.2714 -4.24328 -86.4562
rradius 39.2354
rwrist 21.0207
rhand -6.20521 -26.3725
rfingers 7.12502
rthumb 19.6351 -55.4009
lclavicle 1.32192e-014 -8.34896e-015
lhumerus -41.771 5.9689 88.3241
lradius 36.7393
lwrist -14.1869
lhand -3.12881 -25.3546
lfingers 7.12502
lthumb 22.5903 3.3436
rfemur 7.29764 -0.81555 19.1019
rtibia -1.27222e-014
rfoot -12.7238 -5.06003
rtoes -8.70373
lfemur -4.84196 -6.68542 -9.31926
ltibia 24.5871
lfoot -24.952 13.4603
ltoes -54.7488
8
root -0.749376 18.6678 5.90667 0.949508 -5.44291 -5.50967
lowerback 1.13416 0.918563 3.06532
upperback -1.47507 1.3132 1.15302
thorax -2.10822 0.616557 -0.572207
lowerneck -11.551 0.496822 0.614672
upperneck 22.3142 -0.00247354 2.37325
head 8.88049 0.296422 0.700738
rclavicle 8.49804e-015 1.43125e-014
rhumerus -47.2677 -4.23234 -86.4825
rradius 39.2316
rwrist 20.9769
rhand -6.1139 -26.5176
rfingers 7.12502
rthumb 19.7229 -55.537
lclavicle 8.49804e-015 1.43125e-014
lhumerus -41.7695 6.00911 88.2757
lradius 36.7113
lwrist -14.2418
lhand -3.0678 -25.3046
lfingers 7.12502
lthumb 22.6489 3.3865
rfemur 7.31496 -0.82278 19.1053
rtibia -2.06736e-014
rfoot -12.7351 -5.06458
rtoes -8.78704
lfemur -4.83843 -6.68238 -9.31485
ltibia 24.6082
lfoot -24.9767 13.4401
ltoes -54.8091
